# xmcd
#
# Track frame offsets: 
#        180
#        16162
#        33711
#        59395
#        84089
#        112572
#        118588
#        136915
#        156813
#        181286
#        200797
#
# Disc length: 2991 seconds
#
# Revision: 5
# Processed by: cddbd v1.5.2PL0 Copyright (c) Steve Scherf et al.
# Submitted via: ExactAudioCopy v1.0b3
#
DISCID=850bad0b
DTITLE=新寶島康樂隊 - Best Live and New Remix
DYEAR=1996
DGENRE=Classic Rock
TTITLE0=一顆流星
TTITLE1=寶島曼波
TTITLE2=跑路英雄
TTITLE3=船長要抓狂
TTITLE4=歡聚歌
TTITLE5=聼有的歌要付錢
TTITLE6=臺北發的尾班車
TTITLE7=無情兄
TTITLE8=多情兄
TTITLE9=臺北附近
TTITLE10=日出
EXTD=YEAR: 1996
EXTT0=
EXTT1=
EXTT2=
EXTT3=
EXTT4=
EXTT5=
EXTT6=
EXTT7=
EXTT8=
EXTT9=
EXTT10=
PLAYORDER=
